<svg width="92" height="36" viewBox="0 0 92 36" fill="none" xmlns="http://www.w3.org/2000/svg">
<g clip-path="url(#clip0_59033_9454)">
<path d="M14.943 0H10.1133C5.28338 0 1.12759 3.58299 1.12759 10.5249C1.12759 14.6678 3.14925 17.8028 6.63127 19.3703L0.116584 31.015C-0.108005 31.351 0.116584 31.6868 0.453646 31.6868H3.48631C3.7109 31.6868 3.93549 31.5749 4.04778 31.351L10.001 19.9302H12.1349V31.351C12.1349 31.4629 12.2474 31.6868 12.472 31.6868H15.1678C15.3924 31.6868 15.5047 31.5749 15.5047 31.351V0.447761C15.3924 0.11194 15.2801 0 14.943 0ZM12.1349 17.2431H10.3379C2.58778 17.2431 3.14925 2.68728 10.001 2.68728H12.2474V17.2431H12.1349Z" fill="#FF0000"/>
<path d="M31.1173 10.5249H28.4217C28.1971 10.5249 28.0848 10.6369 28.0847 10.8609V18.9224H23.1424V10.8609C23.1424 10.637 23.0302 10.525 22.8056 10.5249H20.2221C19.9975 10.5249 19.8852 10.6369 19.8852 10.8609V31.351C19.8852 31.5749 19.9975 31.6868 20.2221 31.6868H22.9179C23.1424 31.6868 23.2548 31.5749 23.2549 31.351V21.4977H28.1969V31.351C28.1969 31.5749 28.3093 31.6868 28.534 31.6868H31.2296C31.4543 31.6868 31.5667 31.5749 31.5667 31.351V10.8609C31.4544 10.637 31.3419 10.5249 31.1173 10.5249ZM91.7711 28.8878C91.7711 28.7758 91.6588 28.7758 91.5465 28.7758C90.4232 28.7758 83.5717 32.023 83.5717 21.274C83.5717 16.5715 85.3687 9.96537 89.637 13.8842C89.7493 13.9961 89.8616 13.9961 89.9739 13.9961C90.0861 13.9961 90.1985 13.8842 90.3109 13.6603L91.4341 11.7568C91.5464 11.6448 91.5464 11.5329 91.5464 11.421C91.5464 11.1971 91.3218 11.085 91.0972 10.973C83.684 7.27809 79.8651 14.1081 79.8651 22.0578C79.8651 32.3588 87.3906 33.8144 91.6587 30.6793C91.8832 30.5674 91.8832 30.3433 91.8832 30.2316L91.7711 28.8878ZM73.3504 20.0423L78.5172 10.7491C78.6295 10.637 78.5172 10.4131 78.4049 10.4131H75.8214C75.0352 10.4131 74.8106 10.637 74.5858 11.1969C74.361 11.7568 70.5423 19.7065 70.093 20.0423V10.749C70.093 10.6368 69.9807 10.413 69.8684 10.413H67.0603C66.948 10.413 66.8357 10.5249 66.8357 10.749V31.351C66.8357 31.4629 66.948 31.6868 67.0603 31.6868H69.8684C70.093 31.6868 70.093 31.5749 70.093 31.351V20.714C70.43 20.9379 75.1474 30.6792 75.2597 31.015C75.4843 31.4627 75.9337 31.6868 76.4953 31.6868H79.3034C79.528 31.6868 79.528 31.5749 79.4157 31.351L73.3504 20.0423ZM48.7518 28.9999H48.1902C47.5164 28.9999 47.4039 28.776 47.4039 28.2159V10.749C47.4039 10.5251 47.2916 10.413 47.1793 10.413H38.5305C38.3059 10.413 38.1937 10.525 38.1937 10.749C38.1937 15.4515 38.3059 23.2893 35.1608 28.9997H34.2625C34.0377 28.9997 33.9254 29.1116 33.9254 29.3355V35.4937C33.9254 35.7176 34.15 35.8297 34.2625 35.8297H36.2841C36.7333 35.8297 36.9581 35.4937 36.9581 35.1579V31.6868H46.0562V35.4937C46.0562 35.6058 46.1685 35.8297 46.3931 35.8297H48.6395C48.8641 35.8297 49.2012 35.6058 49.2012 35.1579V29.3355C49.0889 29.1116 48.9766 28.9997 48.752 28.9997M44.0346 28.9997H37.7441C39.5414 26.0885 41.2261 21.386 41.2261 13.1002H44.0342L44.0346 28.9997ZM57.5131 9.96519C52.908 9.96519 50.7738 15.6754 50.7738 21.9455C50.7738 32.2467 57.9625 33.8142 62.9045 30.7911C63.1291 30.6792 63.1291 30.5672 63.1291 30.4553L62.7922 28.9997C62.7922 28.8876 62.6799 28.7758 62.4553 28.7758C60.6581 28.7758 54.3682 31.9107 54.3682 21.7218C56.6146 21.9457 56.6146 21.9457 63.3539 21.9457C63.2416 16.7952 62.6801 9.96519 57.5131 9.96519ZM54.4805 19.3701C54.4805 11.1965 59.8718 9.62902 59.8718 19.1463C57.5131 19.1463 56.5023 19.1463 54.4805 19.3701Z" fill="white"/>
</g>
<defs>
<clipPath id="clip0_59033_9454">
<rect width="92" height="36" fill="white"/>
</clipPath>
</defs>
</svg>

